<?xml version="1.0" encoding="utf-8"?>
<!-- Generator: Adobe Illustrator 22.1.0, SVG Export Plug-In . SVG Version: 6.00 Build 0)  -->
<svg version="1.1" id="Calque_1" xmlns="http://www.w3.org/2000/svg" xmlns:xlink="http://www.w3.org/1999/xlink" x="0px" y="0px"
	 viewBox="0 0 200 200" style="enable-background:new 0 0 200 200;" xml:space="preserve">
<style type="text/css">
	.st0{fill:none;stroke:#020203;stroke-width:0.6931;stroke-linecap:round;stroke-linejoin:round;stroke-miterlimit:10;}
	.st1{fill:none;stroke:#FFFFFF;stroke-width:1.3863;stroke-linecap:round;stroke-linejoin:round;stroke-miterlimit:10;}
	.st2{fill:#FFFFFF;}
	.st3{fill:none;stroke:#020203;stroke-width:1.3863;stroke-linecap:round;stroke-linejoin:round;stroke-miterlimit:10;}
	.st4{fill:#020203;stroke:#FFFFFF;stroke-width:1.3863;stroke-linecap:round;stroke-linejoin:round;stroke-miterlimit:10;}
	.st5{fill:none;stroke:#FFFFFF;stroke-width:1.4225;stroke-linecap:round;stroke-linejoin:round;stroke-miterlimit:10;}
	.st6{fill:#020203;}
	.st7{fill:none;stroke:#FFFFFF;stroke-width:1.0813;stroke-linecap:round;stroke-linejoin:round;stroke-miterlimit:10;}
	.st8{fill:#312783;}
	.st9{fill:#FEEB1A;}
	.st10{fill:none;stroke:#FFFFFF;stroke-width:1.111;stroke-linecap:round;stroke-linejoin:round;stroke-miterlimit:10;}
	.st11{fill:#BE1823;}
	.st12{fill:none;stroke:#FFFFFF;stroke-width:0.8547;stroke-linecap:round;stroke-linejoin:round;stroke-miterlimit:10;}
	.st13{fill:none;stroke:#FFFFFF;stroke-width:0.7677;stroke-linecap:round;stroke-linejoin:round;stroke-miterlimit:10;}
	.st14{fill:#F3E600;}
</style>
<g>
	<path class="st0" d="M137.4,83.7c0,0,1.8-0.4,4.2-4.1"/>
	<path class="st0" d="M142.7,77.6L142.7,77.6"/>
	<path class="st1" d="M136.7,80.8c0.5-0.1,1-0.2,1.5-0.3c0.6-0.2,1.1-0.2,1.7-0.4"/>
	<path class="st1" d="M150.3,74.8L150.3,74.8c-11.6-1.2-12.9-11.7-13.7-16c0.3-0.2,0.6-0.4,0.9-0.6c1.5-0.9,3-1.4,4.5-1.5
		c0.6,0,1.3,0,1.9,0.1C151.5,58,157.7,67.8,150.3,74.8z"/>
	<path class="st1" d="M135.2,60.1c0.1,0,0.1,0,0.1-0.1c0.4-0.5,0.9-0.9,1.4-1.3"/>
	<path class="st1" d="M141.6,79.6c0.8-0.2,1.6-0.5,2.3-0.8c2.9-1.1,5-2.5,6.5-3.9"/>
	<path class="st2" d="M135.5,61.3C120.4,42.9,110.5,71.3,135.5,61.3"/>
	<path class="st2" d="M134.9,60.6c-15.8-17.9,9.7-19.3,2.2-1.8L134.9,60.6z"/>
	<path class="st3" d="M142.1,59c-0.7-9.3,2-11.6,2-11.6"/>
	<path class="st3" d="M143.7,57.5c3.8-8.5,7.3-9.2,7.3-9.2"/>
	<path class="st0" d="M133,79.4c-2.1,4.7-4,5.1-4,5.1"/>
	<path class="st0" d="M132.2,85c0,0,1.8-0.4,4.2-4c0.1,0,0.1-0.1,0.1-0.1"/>
	<path class="st0" d="M139.2,83.7c0,0,2.1-0.4,4.6-4.9c0,0,0,0,0-0.1s0.1-0.2,0.1-0.3c0,0,0-0.1,0.1-0.1"/>
	<path class="st1" d="M133.8,81.3c-3.5-1.4-4.1-4.3-3.7-9.4"/>
	<path class="st4" d="M136.7,80.8c-0.1,0-0.2,0-0.3,0c-0.9,0.2-1.8,0.3-2.7,0.4c-0.6,0.1-1.2,0.1-1.8,0.2c-0.9,0.1-1.8,0.2-2.7,0.3
		c0.1-5.7,0.8-10.3,1.9-13.9c0,5.1-0.2,9.9,5.4,12.8C136.6,80.7,136.6,80.8,136.7,80.8z"/>
	<path class="st1" d="M136.7,80.8L136.7,80.8"/>
	<path class="st1" d="M131.1,67.8C131.1,67.9,131.1,67.9,131.1,67.8"/>
	<path class="st5" d="M137.7,78.6c-0.4,0.8-0.8,1.5-1.1,2.1c-5.7-2.8-5.4-7.7-5.4-12.8c0.4-1.2,0.8-2.3,1.2-3.2
		C132.5,68.7,133.5,75,137.7,78.6z"/>
	<path class="st5" d="M139.9,80.1L139.9,80.1"/>
	<path class="st4" d="M144.2,78.5c-6.5-3.2-9.1-13.9-9.3-17.9c-0.5,0.8-2.2,3.2-2.6,4.1c0.2,4,1.2,10.2,5.3,13.9
		c0.3,0.3,0.7,0.6,1,0.8c0.3,0.2,0.8,0.4,1.2,0.6c0.6-0.2,3.9-1.2,4.7-1.6"/>
	<path class="st1" d="M144.6,78.5c-0.2-0.1-0.3-0.1-0.5-0.1c-0.5-0.2-1-0.4-1.5-0.6"/>
	<path class="st1" d="M150.4,74.8C150.4,74.8,150.4,74.9,150.4,74.8"/>
	<path class="st1" d="M136.7,58.7L136.7,58.7"/>
	<path class="st0" d="M139.1,78.7c-3.2,7.2-6,7.7-6,7.7"/>
	<path class="st0" d="M134.2,80.1c-2.1,4.7-4,5.1-4,5.1"/>
	<ellipse transform="matrix(0.9062 -0.4228 0.4228 0.9062 -12.7354 67.2919)" class="st6" cx="145.3" cy="62.4" rx="0.9" ry="1.4"/>
	<ellipse transform="matrix(0.9062 -0.4228 0.4228 0.9062 -11.8339 68.165)" class="st6" cx="147.7" cy="60.8" rx="0.9" ry="1.4"/>
</g>
<g>
	<path class="st2" d="M100,5c52.4,0,95,41.9,95,93.5S152.4,192,100,192S5,150,5,98.5S47.6,5,100,5 M100,0C44.8,0,0,44.1,0,98.5
		S44.8,197,100,197s100-44.1,100-98.5S155.2,0,100,0L100,0z"/>
</g>
<path class="st7" d="M112.9,151c-15,27.7-12.9,41-12.9,41"/>
<g>
	<path class="st8" d="M111.2,150.2l13-0.7C149.7,169,88.1,166.3,111.2,150.2z"/>
	<path class="st8" d="M111.4,138.4l-0.2,11.9C88.5,157.2,87.5,134.1,111.4,138.4z"/>
	<polygon class="st8" points="124.3,149.6 111.2,150.2 111.4,138.4 124.2,138.9 	"/>
	<path class="st8" d="M124.3,149.6l0-10.6l-12.8-0.6c-22.9-13.2,37-15.6,13.9,0C147.6,132.3,142.8,156.5,124.3,149.6z"/>
</g>
<ellipse class="st9" cx="118.3" cy="143.6" rx="9.5" ry="4.9"/>
<path class="st7" d="M101.5,179c-3.3-11.9-4.9-20.4-8-26.4C89.9,167.2,101.5,179,101.5,179"/>
<path class="st7" d="M101.3,179c7.6-6.4,12.5-11.7,17.4-13.6C115.4,180.1,101.3,179,101.3,179"/>
<path class="st10" d="M45.2,140.5c-5.6,16.4-14.8,21.8-14.8,21.8"/>
<g>
	<path class="st2" d="M38.2,128.7l15-0.6C82.4,146,11.6,143.5,38.2,128.7z"/>
	<path class="st2" d="M38.4,117.9l-0.2,10.9C12.1,135.1,11,113.9,38.4,117.9z"/>
	<polygon class="st2" points="53.2,128.1 38.2,128.7 38.4,117.9 53.2,118.3 	"/>
	<path class="st2" d="M53.2,128.1l-0.1-9.7l-14.7-0.5c-26.3-12.1,42.5-14.3,16,0C80,112.2,74.5,134.4,53.2,128.1z"/>
</g>
<ellipse class="st9" cx="46.4" cy="122.6" rx="10.9" ry="4.5"/>
<path class="st10" d="M34.9,158c-3.7-10.9-5.6-18.7-9.2-24.2C21.6,147.1,34.9,158,34.9,158"/>
<path class="st10" d="M35.9,157.8c8.7-5.9,14.3-10.8,20-12.5C52.1,158.7,35.9,157.8,35.9,157.8"/>
<path class="st10" d="M165.8,120.1c-5.6,16.4,13.1,30.5,13.1,30.5"/>
<g>
	<path class="st11" d="M158.8,108.3l15-0.6C203,125.6,132.2,123.1,158.8,108.3z"/>
	<path class="st11" d="M159,97.5l-0.2,10.9C132.7,114.7,131.6,93.5,159,97.5z"/>
	<polygon class="st11" points="173.8,107.7 158.8,108.3 159,97.5 173.8,97.9 	"/>
	<path class="st11" d="M173.8,107.7l-0.1-9.7L159,97.5c-26.3-12.1,42.5-14.3,16,0C200.6,91.8,195.1,114,173.8,107.7z"/>
</g>
<ellipse class="st9" cx="167" cy="102.2" rx="10.9" ry="4.5"/>
<path class="st12" d="M167.2,136.3c-3.7-6.5-5.6-11.1-9.2-14.3C153.9,129.9,167.2,136.3,167.2,136.3"/>
<path class="st13" d="M167.2,136c4.2-5.9,6.8-10.8,9.6-12.5C174.9,137,167.2,136,167.2,136"/>
<g>
	<g>
		<path class="st2" d="M49.1,99.6c-2.6-4.3,1.2-9.3,3.9-12.5c4.1-5.1,9.1-9.4,13.7-14.1c4.7-4.8,14.7-15.1,2.5-17
			c-7.8-1.2-20,1.1-18.5,11.5c1.8,11.8,14.2,21.8,24.3,26.6c16.8,7.8,34.2,2.9,47.5-9.1c2.3-2.1-1.9-0.3-2.7,0.5
			c-11.9,10.7-27.5,12.4-41.7,5.4c-9.2-4.5-18.6-12.7-22.2-22.6c-1-2.7-1.8-8,0.4-9.3c2.8-1.7,11.6-0.7,14,1.7
			c4.8,4.9-9.2,15.8-12,18.7c-4.5,4.5-17.9,15.3-13.2,23C45.3,103,49.5,100.4,49.1,99.6L49.1,99.6z"/>
	</g>
</g>
<circle class="st14" cx="124.5" cy="96.1" r="1.4"/>
<circle class="st14" cx="107.4" cy="102.3" r="1.7"/>
<circle class="st14" cx="114.8" cy="102.3" r="1"/>
<circle class="st14" cx="133.6" cy="90.3" r="1"/>
<circle class="st14" cx="140.4" cy="82.3" r="1.2"/>
<circle class="st14" cx="135.6" cy="83.1" r="0.6"/>
<circle class="st14" cx="130.3" cy="83.1" r="0.6"/>
<circle class="st14" cx="132.2" cy="84" r="0.5"/>
<circle class="st14" cx="134" cy="85.5" r="0.5"/>
<circle class="st14" cx="130.7" cy="99.5" r="1.2"/>
<circle class="st14" cx="79.6" cy="112.2" r="1.2"/>
<circle class="st14" cx="66.3" cy="106.1" r="1.1"/>
<circle class="st14" cx="59.5" cy="98" r="1.1"/>
<circle class="st14" cx="77.4" cy="97.8" r="1.1"/>
<circle class="st14" cx="94.5" cy="119.1" r="2"/>
<circle class="st14" cx="80.6" cy="125.6" r="1.7"/>
<circle class="st14" cx="72.6" cy="130.8" r="1.5"/>
<circle class="st14" cx="113.2" cy="115.8" r="1.3"/>
<circle class="st14" cx="119.9" cy="128.6" r="1.7"/>
<circle class="st14" cx="125.7" cy="109.3" r="1.3"/>
<circle class="st14" cx="139" cy="108.4" r="1.5"/>
<circle class="st14" cx="138.3" cy="89.6" r="1.2"/>
<circle class="st14" cx="101.7" cy="112.6" r="1.3"/>
<circle class="st14" cx="93.7" cy="129.5" r="1.5"/>
</svg>
