<?xml version="1.0" encoding="utf-8"?>
<!-- Generator: Adobe Illustrator 22.1.0, SVG Export Plug-In . SVG Version: 6.00 Build 0)  -->
<svg version="1.1" xmlns="http://www.w3.org/2000/svg" xmlns:xlink="http://www.w3.org/1999/xlink" x="0px" y="0px"
	 viewBox="0 0 200 200" style="enable-background:new 0 0 200 200;" xml:space="preserve">
<style type="text/css">
	.st0{display:none;}
	.st1{display:inline;fill:#F1891D;stroke:#000000;stroke-miterlimit:10;}
	.st2{fill:none;stroke:#000000;stroke-width:0.8274;stroke-linecap:round;stroke-linejoin:round;stroke-miterlimit:10;}
	.st3{fill:none;stroke:#FFFFFF;stroke-width:1.6549;stroke-linecap:round;stroke-linejoin:round;stroke-miterlimit:10;}
	.st4{fill:#FFFFFF;}
	.st5{fill:none;stroke:#000000;stroke-width:1.6549;stroke-linecap:round;stroke-linejoin:round;stroke-miterlimit:10;}
	.st6{stroke:#FFFFFF;stroke-width:1.6549;stroke-linecap:round;stroke-linejoin:round;stroke-miterlimit:10;}
	.st7{fill:none;stroke:#FFFFFF;stroke-width:1.6981;stroke-linecap:round;stroke-linejoin:round;stroke-miterlimit:10;}
	.st8{fill:none;stroke:#000000;stroke-width:5;stroke-linecap:round;stroke-linejoin:round;stroke-miterlimit:10;}
	.st9{fill:#010202;}
	.st10{fill:none;stroke:#FFFFFF;stroke-linecap:round;stroke-linejoin:round;stroke-miterlimit:10;}
	.st11{fill:#F3E600;}
</style>
<g id="Calque_2" class="st0">
	<rect x="-15.3" y="-19.2" class="st1" width="232.2" height="248.3"/>
</g>
<g id="Calque_1">
	<g>
		<path class="st2" d="M104.2,108.8c0,0-2.2-0.3-5.4-4.5"/>
		<path class="st2" d="M97.3,102c0,0,0,0.1,0.1,0.1"/>
		<path class="st3" d="M104.7,105.3c-0.6-0.1-1.2-0.1-1.8-0.2c-0.7-0.1-1.4-0.2-2-0.3"/>
		<path class="st3" d="M87.9,99.4C87.9,99.4,87.9,99.4,87.9,99.4c13.7-2.5,14.2-15.2,14.8-20.4c-0.3-0.2-0.7-0.4-1.1-0.6
			c-1.8-1-3.7-1.4-5.5-1.3c-0.8,0-1.5,0.1-2.3,0.3C85,79.5,78.6,91.7,87.9,99.4z"/>
		<path class="st3" d="M104.6,80.5c0,0-0.1-0.1-0.1-0.1c-0.6-0.5-1.1-1-1.7-1.4"/>
		<path class="st3" d="M98.9,104.3c-1-0.2-1.9-0.5-2.8-0.8c-3.5-1.1-6.1-2.5-8.1-4.1"/>
		<path class="st4" d="M104.4,81.9C120.6,58.6,135,91.5,104.4,81.9"/>
		<path class="st4" d="M105,81.1c17.2-22.7-13.4-22.1-2.8-2L105,81.1z"/>
		<path class="st5" d="M96.3,79.8c0-11.1-3.4-13.6-3.4-13.6"/>
		<path class="st5" d="M94.3,78.1c-5.3-9.8-9.5-10.3-9.5-10.3"/>
		<path class="st2" d="M109.1,103.3c3,5.4,5.3,5.7,5.3,5.7"/>
		<path class="st2" d="M110.5,109.8c0,0-2.2-0.3-5.3-4.5c0-0.1-0.1-0.1-0.1-0.2"/>
		<path class="st2" d="M102,108.9c0,0-2.5-0.3-6-5.4c0,0,0,0,0-0.1c-0.1-0.1-0.2-0.2-0.2-0.3c0,0,0-0.1-0.1-0.1"/>
		<path class="st3" d="M108.2,105.5c4-2.1,4.5-5.6,3.5-11.5"/>
		<path class="st6" d="M104.7,105.3c0.1,0,0.2,0,0.4,0c1,0.1,2.1,0.2,3.3,0.3c0.7,0,1.4,0.1,2.2,0.1c1.1,0,2.2,0,3.3,0
			c-0.7-6.8-2-12.2-3.6-16.3c0.5,6.1,1.2,11.8-5.3,15.7C104.9,105.2,104.8,105.2,104.7,105.3z"/>
		<path class="st3" d="M104.7,105.3C104.7,105.3,104.7,105.3,104.7,105.3"/>
		<path class="st3" d="M110.2,89.3C110.2,89.3,110.2,89.4,110.2,89.3"/>
		<path class="st7" d="M103.4,102.7c0.5,0.9,1.1,1.7,1.6,2.4c6.5-3.9,5.7-9.7,5.3-15.7c-0.5-1.4-1.1-2.6-1.7-3.7
			C108.6,90.4,108,98,103.4,102.7z"/>
		<path class="st7" d="M100.9,104.8C100.9,104.7,100.9,104.7,100.9,104.8"/>
		<path class="st6" d="M95.6,103.2c7.5-4.4,9.5-17.4,9.4-22.1c0.7,0.9,2.9,3.5,3.5,4.6c0.1,4.7-0.5,12.3-5.1,17.1
			c-0.4,0.4-0.8,0.8-1.2,1.1c-0.3,0.3-0.9,0.6-1.3,0.8c-0.7-0.1-4.8-1.1-5.8-1.6"/>
		<path class="st3" d="M95.1,103.2c0.2-0.1,0.4-0.1,0.5-0.2c0.6-0.2,1.2-0.5,1.7-0.9"/>
		<path class="st3" d="M87.8,99.4C87.8,99.4,87.9,99.4,87.8,99.4"/>
		<path class="st3" d="M102.8,79C102.8,79,102.8,79,102.8,79"/>
		<path class="st2" d="M101.7,102.9c4.4,8.2,8,8.6,8,8.6"/>
		<path class="st2" d="M107.6,104.2c3,5.4,5.3,5.7,5.3,5.7"/>
		<ellipse transform="matrix(0.3506 -0.9365 0.9365 0.3506 -18.5239 141.4946)" cx="92.8" cy="84.1" rx="1.7" ry="1.1"/>
		<ellipse transform="matrix(0.3506 -0.9365 0.9365 0.3506 -18.9315 137.548)" cx="89.7" cy="82.4" rx="1.7" ry="1.1"/>
	</g>
	<g>
		<g>
			<path class="st4" d="M187.6,110c-3.8,3.6-22.3,23.1-28.8,13.9c-1.2-1.7-1.1-4.1-0.4-6c0.2-0.5,0.5-1,0.8-1.5c0.7-0.9-0.3,0-0.1,0
				c1.4-0.1,2.6,0.3,3.7,1.1c7.1,4.6,7.4,13.3,0.8,18.4c-8,6.1-20.4,7.6-30.1,6.1c-13.1-1.9-22.5-10.6-24.4-23.9
				c0-0.2-4.1,1.2-3.9,2.4c4.1,29.4,45.1,31,63,13c2.9-3,5.1-6.9,3.9-11.1c-1-3.6-4.8-8.4-8.8-8.7c-5.5-0.3-11.7,6.9-8.7,12.2
				c2.2,3.9,7.5,2.6,10.8,1.3c9.7-3.7,17.9-11.3,25.2-18.4C192.2,107.6,188.2,109.5,187.6,110L187.6,110z"/>
		</g>
	</g>
	<g>
		<path class="st8" d="M40.5,28.2c6.6,3.4,16.2,13,15.6,15.5c-0.6,2.5,4,12.9,6.6,15c2.5,2.1,5.3,19.7,4.7,23.5
			c-0.6,3.8-12.9,14.6-12.9,22.6s5.5,12.1,7.4,14.8c1.9,2.7-2.7,15.9-4.2,17.3c-1.5,1.5-12.7,9.7-12.7,9.7l-14.2,8.5l-6.3,0.6"/>
		<g>
			<ellipse class="st9" cx="40.6" cy="80.8" rx="5.7" ry="9.3"/>
		</g>
		<line class="st10" x1="33" y1="37.3" x2="41.2" y2="37.3"/>
		<line class="st10" x1="33" y1="47.7" x2="41.2" y2="47.7"/>
		<line class="st10" x1="40.8" y1="55.3" x2="49" y2="55.3"/>
		<line class="st10" x1="33.2" y1="63.5" x2="41.4" y2="63.5"/>
		<line class="st10" x1="47.1" y1="67.4" x2="55.3" y2="67.4"/>
		<line class="st10" x1="29.8" y1="98.5" x2="38" y2="98.5"/>
		<line class="st10" x1="29.8" y1="109" x2="38" y2="109"/>
		<line class="st10" x1="37.6" y1="116.6" x2="45.8" y2="116.6"/>
		<line class="st10" x1="30" y1="124.7" x2="38.2" y2="124.7"/>
		<line class="st10" x1="43.9" y1="128.7" x2="52.1" y2="128.7"/>
	</g>
	<g>
		<path class="st4" d="M100,6c52.4,0,95,41.9,95,93.5s-42.6,93.5-95,93.5S5,151,5,99.5S47.6,6,100,6 M100,1C44.8,1,0,45.1,0,99.5
			s44.8,98.5,100,98.5s100-44.1,100-98.5S155.2,1,100,1L100,1z"/>
	</g>
	<ellipse class="st11" cx="114.2" cy="113.7" rx="1.4" ry="1.4"/>
	<ellipse class="st11" cx="119.4" cy="109.4" rx="1.7" ry="1.7"/>
	<ellipse class="st11" cx="109.8" cy="107.6" rx="0.6" ry="0.6"/>
	<ellipse class="st11" cx="108" cy="108.5" rx="0.5" ry="0.5"/>
	<ellipse class="st11" cx="106.2" cy="110" rx="0.5" ry="0.5"/>
	<ellipse class="st11" cx="136.3" cy="136" rx="1.9" ry="2"/>
	<ellipse class="st11" cx="129.2" cy="128.2" rx="1.3" ry="1.3"/>
	<ellipse class="st11" cx="129.2" cy="118" rx="1.3" ry="1.3"/>
	<ellipse class="st11" cx="127.5" cy="133.3" rx="1.4" ry="1.5"/>
	<ellipse class="st11" cx="102" cy="114.1" rx="1.2" ry="1.2"/>
	<ellipse class="st11" cx="120" cy="120.1" rx="1.3" ry="1.3"/>
	<ellipse class="st11" cx="142.4" cy="151.8" rx="1.4" ry="1.5"/>
</g>
</svg>
