<?xml version="1.0" encoding="utf-8"?>
<!-- Generator: Adobe Illustrator 22.1.0, SVG Export Plug-In . SVG Version: 6.00 Build 0)  -->
<svg version="1.1" xmlns="http://www.w3.org/2000/svg" xmlns:xlink="http://www.w3.org/1999/xlink" x="0px" y="0px"
	 viewBox="0 0 200 200" style="enable-background:new 0 0 200 200;" xml:space="preserve">
<style type="text/css">
	.st0{fill:#FFFFFF;}
	.st1{fill:none;stroke:#000000;stroke-width:5;stroke-linecap:round;stroke-linejoin:round;stroke-miterlimit:10;}
	.st2{fill:#010202;}
	.st3{fill:none;stroke:#FFFFFF;stroke-linecap:round;stroke-linejoin:round;stroke-miterlimit:10;}
	.st4{fill:none;stroke:#000000;stroke-linecap:round;stroke-linejoin:round;stroke-miterlimit:10;}
	.st5{fill:none;stroke:#FFFFFF;stroke-width:2;stroke-linecap:round;stroke-linejoin:round;stroke-miterlimit:10;}
	.st6{fill:none;stroke:#000000;stroke-width:2;stroke-linecap:round;stroke-linejoin:round;stroke-miterlimit:10;}
	.st7{stroke:#FFFFFF;stroke-width:2;stroke-linecap:round;stroke-linejoin:round;stroke-miterlimit:10;}
	.st8{fill:none;stroke:#FFFFFF;stroke-width:2.0523;stroke-linecap:round;stroke-linejoin:round;stroke-miterlimit:10;}
</style>
<g id="Calque_1">
	<g>
		<g>
			<path class="st0" d="M48.9,92.1c6.9,6.7,14.5,13.8,23.3,17.8c3.9,1.8,7.9,2.6,11.8,0.5c5.5-2.9,7.5-10,3.9-15.4
				c-1.7-2.5-3.7-2.3-6.1-0.8c-3.7,2.3-4.9,6.2-5.8,10.3c-3.3,14.9,8.4,25.5,22.6,26.7c17.6,1.5,33.5-10.6,36.9-27.8
				c0.1-0.4-4,1-4.3,2.3c-2.8,14.4-13.4,23.8-28.4,22.7c-10.2-0.7-21.2-6.6-23.1-17.5c-0.8-4.5,0.1-10.1,2.1-14.2c0,0,1-1.7,1-1.7
				c-0.2-0.4-1.4,0.7-1.3,1c0,0.1,1.6,1.1,1.8,1.4c2.4,2.9,2.9,8.8,0.5,11.8c0.6-0.8,1-0.1-0.2-0.3c-0.8-0.1-1.7,0-2.5-0.1
				c-2.2-0.3-4.3-1.3-6.3-2.3c-8.2-4.2-15.2-10.7-21.7-17C52.3,88.6,48.5,91.7,48.9,92.1L48.9,92.1z"/>
		</g>
	</g>
	<g>
		<path class="st1" d="M40.5,27.2c6.6,3.4,16.2,13,15.6,15.5c-0.6,2.5,4,12.9,6.6,15c2.5,2.1,5.3,19.7,4.7,23.5
			c-0.6,3.8-12.9,14.6-12.9,22.6s5.5,12.1,7.4,14.8c1.9,2.7-2.7,15.9-4.2,17.3c-1.5,1.5-12.7,9.7-12.7,9.7l-14.2,8.5l-6.3,0.6"/>
		<g>
			<ellipse class="st2" cx="40.6" cy="79.8" rx="5.7" ry="9.3"/>
		</g>
		<line class="st3" x1="33" y1="36.3" x2="41.2" y2="36.3"/>
		<line class="st3" x1="33" y1="46.7" x2="41.2" y2="46.7"/>
		<line class="st3" x1="40.8" y1="54.3" x2="49" y2="54.3"/>
		<line class="st3" x1="33.2" y1="62.5" x2="41.4" y2="62.5"/>
		<line class="st3" x1="47.1" y1="66.4" x2="55.3" y2="66.4"/>
		<line class="st3" x1="29.8" y1="97.5" x2="38" y2="97.5"/>
		<line class="st3" x1="29.8" y1="108" x2="38" y2="108"/>
		<line class="st3" x1="37.6" y1="115.6" x2="45.8" y2="115.6"/>
		<line class="st3" x1="30" y1="123.7" x2="38.2" y2="123.7"/>
		<line class="st3" x1="43.9" y1="127.7" x2="52.1" y2="127.7"/>
	</g>
	<g>
		<path class="st0" d="M100,5c52.4,0,95,41.9,95,93.5s-42.6,93.5-95,93.5S5,150,5,98.5S47.6,5,100,5 M100,0C44.8,0,0,44.1,0,98.5
			s44.8,98.5,100,98.5s100-44.1,100-98.5S155.2,0,100,0L100,0z"/>
	</g>
</g>
<g id="abeille">
	<g>
		<path class="st4" d="M134.5,89.9c0,0,2.7-0.3,6.5-5.4"/>
		<path class="st4" d="M142.8,81.7c0,0-0.1,0.1-0.1,0.1"/>
		<path class="st5" d="M133.9,85.7c0.7-0.1,1.5-0.2,2.2-0.3c0.8-0.1,1.6-0.2,2.4-0.4"/>
		<path class="st5" d="M154.2,78.6C154.2,78.6,154.2,78.6,154.2,78.6c-16.6-3-17.2-18.3-17.9-24.6c0.4-0.3,0.8-0.5,1.3-0.7
			c2.2-1.2,4.4-1.7,6.6-1.6c0.9,0,1.9,0.1,2.7,0.4C157.7,54.5,165.5,69.3,154.2,78.6z"/>
		<path class="st5" d="M134,55.7c0,0,0.1-0.1,0.1-0.1c0.7-0.6,1.4-1.2,2.1-1.7"/>
		<path class="st5" d="M141,84.5c1.2-0.3,2.3-0.6,3.4-0.9c4.2-1.3,7.4-3,9.8-5"/>
		<path class="st0" d="M134.3,57.4C114.7,29.2,97.3,69,134.3,57.4"/>
		<path class="st0" d="M133.5,56.4c-20.7-27.5,16.2-26.7,3.4-2.4L133.5,56.4z"/>
		<path class="st6" d="M144.1,54.9c0-13.4,4.2-16.4,4.2-16.4"/>
		<path class="st6" d="M146.5,52.8c6.4-11.8,11.5-12.4,11.5-12.4"/>
		<path class="st4" d="M128.6,83.2c-3.6,6.6-6.4,6.9-6.4,6.9"/>
		<path class="st4" d="M126.9,91.1c0,0,2.7-0.3,6.5-5.4c0.1-0.1,0.1-0.2,0.2-0.2"/>
		<path class="st4" d="M137.1,90.1c0,0,3.1-0.4,7.3-6.5c0,0,0-0.1,0.1-0.1c0.1-0.1,0.2-0.3,0.3-0.4c0-0.1,0.1-0.1,0.1-0.2"/>
		<path class="st5" d="M129.6,86c-4.9-2.5-5.4-6.7-4.3-13.9"/>
		<path class="st7" d="M133.8,85.7c-0.1,0-0.3,0-0.5,0c-1.2,0.1-2.6,0.2-3.9,0.3c-0.9,0-1.7,0.1-2.6,0.1c-1.3,0-2.6,0.1-4,0.1
			c0.8-8.2,2.4-14.7,4.4-19.8c-0.6,7.3-1.5,14.3,6.3,19C133.7,85.5,133.8,85.6,133.8,85.7z"/>
		<path class="st5" d="M133.9,85.7C133.9,85.7,133.9,85.7,133.9,85.7"/>
		<path class="st5" d="M127.2,66.4C127.2,66.4,127.2,66.4,127.2,66.4"/>
		<path class="st8" d="M135.5,82.6c-0.7,1.1-1.3,2-1.9,2.9c-7.8-4.7-6.9-11.7-6.3-19c0.6-1.6,1.4-3.1,2.1-4.5
			C129.2,67.7,130,76.8,135.5,82.6z"/>
		<path class="st8" d="M138.5,85C138.5,85,138.5,85,138.5,85"/>
		<path class="st7" d="M144.9,83.1c-9.1-5.3-11.5-21-11.3-26.7c-0.8,1-3.5,4.3-4.2,5.6c-0.1,5.7,0.7,14.9,6.1,20.6
			c0.4,0.5,0.9,0.9,1.4,1.3c0.4,0.3,1.1,0.7,1.6,1c0.9-0.2,5.8-1.3,7-1.9"/>
		<path class="st5" d="M145.5,83.2c-0.2-0.1-0.4-0.2-0.6-0.3c-0.7-0.3-1.4-0.7-2.1-1"/>
		<path class="st5" d="M154.3,78.6c0,0-0.1,0-0.1,0"/>
		<path class="st5" d="M136.3,54C136.3,53.9,136.2,53.9,136.3,54"/>
		<path class="st4" d="M137.5,82.8c-5.4,9.9-9.6,10.4-9.6,10.4"/>
		<path class="st4" d="M130.4,84.4c-3.6,6.6-6.4,6.9-6.4,6.9"/>
		<ellipse transform="matrix(0.9365 -0.3506 0.3506 0.9365 -11.6469 55.8123)" cx="148.3" cy="60.1" rx="1.3" ry="2"/>
		<ellipse transform="matrix(0.9365 -0.3506 0.3506 0.9365 -10.7015 56.9754)" cx="152" cy="58" rx="1.3" ry="2"/>
	</g>
</g>
</svg>
