<?xml version="1.0" encoding="utf-8"?>
<!-- Generator: Adobe Illustrator 22.1.0, SVG Export Plug-In . SVG Version: 6.00 Build 0)  -->
<svg version="1.1" id="Calque_1" xmlns="http://www.w3.org/2000/svg" xmlns:xlink="http://www.w3.org/1999/xlink" x="0px" y="0px"
	 viewBox="0 0 200 200" style="enable-background:new 0 0 200 200;" xml:space="preserve">
<style type="text/css">
	.st0{fill:#FFFFFF;}
	.st1{fill:none;stroke:#000000;stroke-width:5;stroke-linecap:round;stroke-linejoin:round;stroke-miterlimit:10;}
	.st2{fill:#010202;}
	.st3{fill:none;stroke:#FFFFFF;stroke-linecap:round;stroke-linejoin:round;stroke-miterlimit:10;}
	.st4{fill:none;stroke:#000000;stroke-width:0.6398;stroke-linecap:round;stroke-linejoin:round;stroke-miterlimit:10;}
	.st5{fill:none;stroke:#FFFFFF;stroke-width:1.2796;stroke-linecap:round;stroke-linejoin:round;stroke-miterlimit:10;}
	.st6{fill:none;stroke:#000000;stroke-width:1.2796;stroke-linecap:round;stroke-linejoin:round;stroke-miterlimit:10;}
	.st7{stroke:#FFFFFF;stroke-width:1.2796;stroke-linecap:round;stroke-linejoin:round;stroke-miterlimit:10;}
	.st8{fill:none;stroke:#FFFFFF;stroke-width:1.3131;stroke-linecap:round;stroke-linejoin:round;stroke-miterlimit:10;}
</style>
<g id="Calque_1_1_">
	<g>
		<g>
			<path class="st0" d="M48.9,92.1c6.9,6.7,14.5,13.8,23.3,17.8c3.9,1.8,7.9,2.6,11.8,0.5c5.5-2.9,7.5-10,3.9-15.4
				c-1.7-2.5-3.7-2.3-6.1-0.8c-3.7,2.3-4.9,6.2-5.8,10.3c-3.3,14.9,8.4,25.5,22.6,26.7c17.6,1.5,33.5-10.6,36.9-27.8
				c0.1-0.4-4,1-4.3,2.3c-2.8,14.4-13.4,23.8-28.4,22.7c-10.2-0.7-21.2-6.6-23.1-17.5c-0.8-4.5,0.1-10.1,2.1-14.2l1-1.7
				c-0.2-0.4-1.4,0.7-1.3,1c0,0.1,1.6,1.1,1.8,1.4c2.4,2.9,2.9,8.8,0.5,11.8c0.6-0.8,1-0.1-0.2-0.3c-0.8-0.1-1.7,0-2.5-0.1
				c-2.2-0.3-4.3-1.3-6.3-2.3c-8.2-4.2-15.2-10.7-21.7-17C52.3,88.6,48.5,91.7,48.9,92.1L48.9,92.1z"/>
		</g>
	</g>
	<g>
		<path class="st1" d="M40.5,27.2c6.6,3.4,16.2,13,15.6,15.5c-0.6,2.5,4,12.9,6.6,15c2.5,2.1,5.3,19.7,4.7,23.5
			c-0.6,3.8-12.9,14.6-12.9,22.6s5.5,12.1,7.4,14.8c1.9,2.7-2.7,15.9-4.2,17.3c-1.5,1.5-12.7,9.7-12.7,9.7l-14.2,8.5l-6.3,0.6"/>
		<g>
			<ellipse class="st2" cx="40.6" cy="79.8" rx="5.7" ry="9.3"/>
		</g>
		<line class="st3" x1="33" y1="36.3" x2="41.2" y2="36.3"/>
		<line class="st3" x1="33" y1="46.7" x2="41.2" y2="46.7"/>
		<line class="st3" x1="40.8" y1="54.3" x2="49" y2="54.3"/>
		<line class="st3" x1="33.2" y1="62.5" x2="41.4" y2="62.5"/>
		<line class="st3" x1="47.1" y1="66.4" x2="55.3" y2="66.4"/>
		<line class="st3" x1="29.8" y1="97.5" x2="38" y2="97.5"/>
		<line class="st3" x1="29.8" y1="108" x2="38" y2="108"/>
		<line class="st3" x1="37.6" y1="115.6" x2="45.8" y2="115.6"/>
		<line class="st3" x1="30" y1="123.7" x2="38.2" y2="123.7"/>
		<line class="st3" x1="43.9" y1="127.7" x2="52.1" y2="127.7"/>
	</g>
	<g>
		<path class="st0" d="M100,5c52.4,0,95,41.9,95,93.5S152.4,192,100,192S5,150,5,98.5S47.6,5,100,5 M100,0C44.8,0,0,44.1,0,98.5
			S44.8,197,100,197s100-44.1,100-98.5S155.2,0,100,0L100,0z"/>
	</g>
</g>
<g id="abeille">
	<g>
		<path class="st4" d="M112.5,99.6c0,0,1.7,0.4,5-2"/>
		<path class="st4" d="M119.2,96.3C119.2,96.3,119.2,96.3,119.2,96.3"/>
		<path class="st5" d="M113,96.9c0.5,0.1,0.9,0.2,1.3,0.3c0.5,0.1,1,0.2,1.5,0.2"/>
		<path class="st5" d="M126.8,96.6L126.8,96.6c-9.5-5.1-6.8-14.6-6-18.5c0.3-0.1,0.6-0.2,0.9-0.2c1.6-0.3,3-0.1,4.4,0.4
			c0.5,0.2,1.1,0.5,1.6,0.8C133.7,82.7,135.5,93.2,126.8,96.6z"/>
		<path class="st5" d="M119.1,78.7c0.1,0,0.1,0,0.1-0.1c0.5-0.3,1.1-0.5,1.6-0.6"/>
		<path class="st5" d="M117.5,97.6c0.8,0.1,1.6,0.1,2.3,0.1c2.8,0.1,5.1-0.4,6.9-1.1"/>
		<path class="st0" d="M118.9,79.8C112.7,58.8,94.1,79.5,118.9,79.8"/>
		<path class="st0" d="M118.7,79c-7.1-20.9,15.2-13,2.5-0.8L118.7,79z"/>
		<path class="st6" d="M125.4,80.3c2.7-8.2,5.8-9.1,5.8-9.1"/>
		<path class="st6" d="M127.3,79.5c6.3-5.9,9.4-5.3,9.4-5.3"/>
		<path class="st4" d="M110.3,94.4c-3.5,3.3-5.3,2.9-5.3,2.9"/>
		<path class="st4" d="M107.7,98.8c0,0,1.7,0.4,5-2c0.1,0,0.1-0.1,0.2-0.1"/>
		<path class="st4" d="M114.1,100.2c0,0,1.9,0.4,5.7-2.5l0.1,0c0.1-0.1,0.1-0.1,0.3-0.2c0.1,0,0.1,0,0.1-0.1"/>
		<path class="st5" d="M110.4,96.2c-2.5-2.5-2-5.2,0.2-9.3"/>
		<path class="st7" d="M113,96.9c-0.1,0-0.2-0.1-0.3-0.1c-0.8-0.2-1.6-0.3-2.4-0.6c-0.5-0.2-1.1-0.3-1.6-0.5
			c-0.8-0.3-1.6-0.5-2.5-0.8c2.2-4.8,4.4-8.5,6.6-11.1c-1.8,4.4-3.7,8.4,0,12.8C112.9,96.8,112.9,96.8,113,96.9z"/>
		<path class="st5" d="M113,96.9L113,96.9"/>
		<path class="st5" d="M112.8,83.8C112.8,83.8,112.8,83.9,112.8,83.8"/>
		<path class="st8" d="M114.6,95.3c-0.6,0.5-1.2,1-1.7,1.4c-3.8-4.4-1.8-8.5,0-12.8c0.7-0.9,1.5-1.7,2.2-2.3
			C113.8,85.1,112.4,90.8,114.6,95.3z"/>
		<path class="st8" d="M116,97.4L116,97.4"/>
		<path class="st7" d="M120.2,97.5c-4.4-5.1-2.8-15-1.5-18.5c-0.7,0.5-3,1.9-3.7,2.6c-1.2,3.5-2.5,9.2-0.4,13.7
			c0.2,0.3,0.4,0.7,0.6,1.1c0.1,0.3,0.5,0.7,0.7,0.9c0.5,0.1,3.8,0.4,4.6,0.2"/>
		<path class="st5" d="M120.6,97.7c-0.1-0.1-0.2-0.2-0.4-0.3c-0.4-0.3-0.8-0.7-1-1.1"/>
		<path class="st5" d="M126.8,96.7L126.8,96.7"/>
		<path class="st5" d="M120.8,78.1L120.8,78.1"/>
		<path class="st4" d="M115.8,95.9c-5.2,4.9-7.9,4.4-7.9,4.4"/>
		<path class="st4" d="M111.1,95.4c-3.5,3.3-5.3,2.9-5.3,2.9"/>
		<ellipse transform="matrix(0.9992 -4.047302e-02 4.047302e-02 0.9992 -3.3058 5.2061)" cx="126.9" cy="84.2" rx="0.8" ry="1.3"/>
		<ellipse transform="matrix(0.9992 -4.047302e-02 4.047302e-02 0.9992 -3.282 5.3134)" cx="129.6" cy="83.7" rx="0.8" ry="1.3"/>
	</g>
</g>
</svg>
