<?xml version="1.0" encoding="utf-8"?>
<!-- Generator: Adobe Illustrator 22.1.0, SVG Export Plug-In . SVG Version: 6.00 Build 0)  -->
<svg version="1.1" xmlns="http://www.w3.org/2000/svg" xmlns:xlink="http://www.w3.org/1999/xlink" x="0px" y="0px"
	 viewBox="0 0 200 200" style="enable-background:new 0 0 200 200;" xml:space="preserve">
<style type="text/css">
	.st0{fill:#FFFFFF;}
	.st1{fill:none;stroke:#000000;stroke-width:5;stroke-linecap:round;stroke-linejoin:round;stroke-miterlimit:10;}
	.st2{fill:#010202;}
	.st3{fill:none;stroke:#FFFFFF;stroke-linecap:round;stroke-linejoin:round;stroke-miterlimit:10;}
	.st4{fill:none;stroke:#000000;stroke-linecap:round;stroke-linejoin:round;stroke-miterlimit:10;}
	.st5{fill:none;stroke:#FFFFFF;stroke-width:2;stroke-linecap:round;stroke-linejoin:round;stroke-miterlimit:10;}
	.st6{fill:none;stroke:#000000;stroke-width:2;stroke-linecap:round;stroke-linejoin:round;stroke-miterlimit:10;}
	.st7{stroke:#FFFFFF;stroke-width:2;stroke-linecap:round;stroke-linejoin:round;stroke-miterlimit:10;}
	.st8{fill:none;stroke:#FFFFFF;stroke-width:2.0523;stroke-linecap:round;stroke-linejoin:round;stroke-miterlimit:10;}
</style>
<g id="Calque_1">
	<g>
		<g>
			<path class="st0" d="M48.9,92.1c6.9,6.7,14.5,13.8,23.3,17.8c3.9,1.8,7.9,2.6,11.8,0.5c5.5-2.9,7.5-10,3.9-15.4
				c-1.7-2.5-3.7-2.3-6.1-0.8c-3.7,2.3-4.9,6.2-5.8,10.3c-3.3,14.9,8.4,25.5,22.6,26.7c17.6,1.5,33.5-10.6,36.9-27.8
				c0.1-0.4-4,1-4.3,2.3c-2.8,14.4-13.4,23.8-28.4,22.7c-10.2-0.7-21.2-6.6-23.1-17.5c-0.8-4.5,0.1-10.1,2.1-14.2c0,0,1-1.7,1-1.7
				c-0.2-0.4-1.4,0.7-1.3,1c0,0.1,1.6,1.1,1.8,1.4c2.4,2.9,2.9,8.8,0.5,11.8c0.6-0.8,1-0.1-0.2-0.3c-0.8-0.1-1.7,0-2.5-0.1
				c-2.2-0.3-4.3-1.3-6.3-2.3c-8.2-4.2-15.2-10.7-21.7-17C52.3,88.6,48.5,91.7,48.9,92.1L48.9,92.1z"/>
		</g>
	</g>
	<g>
		<path class="st1" d="M40.5,27.2c6.6,3.4,16.2,13,15.6,15.5c-0.6,2.5,4,12.9,6.6,15c2.5,2.1,5.3,19.7,4.7,23.5
			c-0.6,3.8-12.9,14.6-12.9,22.6s5.5,12.1,7.4,14.8c1.9,2.7-2.7,15.9-4.2,17.3c-1.5,1.5-12.7,9.7-12.7,9.7l-14.2,8.5l-6.3,0.6"/>
		<g>
			<ellipse class="st2" cx="40.6" cy="79.8" rx="5.7" ry="9.3"/>
		</g>
		<line class="st3" x1="33" y1="36.3" x2="41.2" y2="36.3"/>
		<line class="st3" x1="33" y1="46.7" x2="41.2" y2="46.7"/>
		<line class="st3" x1="40.8" y1="54.3" x2="49" y2="54.3"/>
		<line class="st3" x1="33.2" y1="62.5" x2="41.4" y2="62.5"/>
		<line class="st3" x1="47.1" y1="66.4" x2="55.3" y2="66.4"/>
		<line class="st3" x1="29.8" y1="97.5" x2="38" y2="97.5"/>
		<line class="st3" x1="29.8" y1="108" x2="38" y2="108"/>
		<line class="st3" x1="37.6" y1="115.6" x2="45.8" y2="115.6"/>
		<line class="st3" x1="30" y1="123.7" x2="38.2" y2="123.7"/>
		<line class="st3" x1="43.9" y1="127.7" x2="52.1" y2="127.7"/>
	</g>
	<g>
		<path class="st0" d="M100,5c52.4,0,95,41.9,95,93.5s-42.6,93.5-95,93.5S5,150,5,98.5S47.6,5,100,5 M100,0C44.8,0,0,44.1,0,98.5
			s44.8,98.5,100,98.5s100-44.1,100-98.5S155.2,0,100,0L100,0z"/>
	</g>
</g>
<g id="abeille">
	<g>
		<path class="st4" d="M125.2,88.4c0,0,2.1,1.7,8.4,0.7"/>
		<path class="st4" d="M136.9,88.5c-0.1,0-0.1,0-0.1,0"/>
		<path class="st5" d="M127.8,85c0.6,0.5,1.2,0.9,1.7,1.3c0.7,0.5,1.3,1,2,1.4"/>
		<path class="st5" d="M147.2,94.3C147.2,94.3,147.2,94.3,147.2,94.3c-9.6-13.8,0.8-25.1,4.7-30.1c0.5,0.1,1,0.2,1.4,0.4
			c2.4,0.7,4.3,2,5.8,3.6c0.6,0.7,1.2,1.4,1.7,2.2C166.7,79.7,161.7,95.7,147.2,94.3z"/>
		<path class="st5" d="M149.1,63.9c0.1,0,0.1,0,0.2,0c0.9,0,1.8,0.1,2.6,0.3"/>
		<path class="st5" d="M133.6,89.1c1,0.7,2.1,1.3,3.1,1.8c3.9,2.1,7.4,3.1,10.4,3.4"/>
		<path class="st0" d="M148,65.3C154.2,31.6,113.7,47.3,148,65.3"/>
		<path class="st0" d="M148.3,64c4.8-34.1,30.3-7.4,4.1,0.7L148.3,64z"/>
		<path class="st6" d="M156.8,70.5c9.5-9.5,14.5-8.6,14.5-8.6"/>
		<path class="st6" d="M159.9,70.7c12.9-3.8,16.9-0.7,16.9-0.7"/>
		<path class="st4" d="M125.8,79.6c-7.2,2.1-9.4,0.4-9.4,0.4"/>
		<path class="st4" d="M119,83.9c0,0,2.1,1.7,8.4,0.8c0.1,0,0.2,0,0.3,0"/>
		<path class="st4" d="M127,90.4c0,0,2.4,1.9,9.7,0.5c0,0,0.1,0,0.1,0c0.2,0,0.3-0.1,0.5-0.1c0.1,0,0.1,0,0.2,0"/>
		<path class="st5" d="M124.6,82.2c-1.7-5.2,0.9-8.6,6.8-12.8"/>
		<path class="st7" d="M127.8,85c-0.1-0.1-0.2-0.2-0.4-0.3c-1-0.8-2-1.6-3-2.5c-0.6-0.6-1.3-1.2-1.9-1.8c-0.9-0.9-1.9-1.8-2.9-2.8
			c6.4-5.2,12.1-8.7,17-10.9c-5.6,4.8-11.1,9.1-9,17.9C127.7,84.7,127.7,84.8,127.8,85z"/>
		<path class="st5" d="M127.8,85C127.8,85,127.8,85,127.8,85"/>
		<path class="st5" d="M136.7,66.6C136.7,66.6,136.7,66.7,136.7,66.6"/>
		<path class="st8" d="M131.1,83.9c-1.2,0.3-2.4,0.5-3.4,0.7c-2.2-8.9,3.4-13.1,9-17.9c1.6-0.7,3.2-1.3,4.7-1.7
			C137.2,69,131.3,76,131.1,83.9z"/>
		<path class="st8" d="M131.5,87.8c0,0,0-0.1,0-0.1"/>
		<path class="st7" d="M137.3,90.9c-2.6-10.2,6.7-22.9,10.9-26.9c-1.3,0.2-5.5,0.5-7,1c-4.1,4-10,11-10.2,18.9c0,0.6,0,1.3,0.1,2
			c0,0.5,0.3,1.3,0.4,1.8c0.7,0.5,5,3.2,6.3,3.6"/>
		<path class="st5" d="M137.8,91.4c-0.1-0.2-0.2-0.4-0.3-0.7c-0.3-0.7-0.6-1.5-0.7-2.2"/>
		<path class="st5" d="M147.2,94.4C147.2,94.4,147.2,94.4,147.2,94.4"/>
		<path class="st5" d="M151.9,64.2C151.9,64.2,151.9,64.2,151.9,64.2"/>
		<path class="st4" d="M132.4,85.5c-10.8,3.2-14.2,0.6-14.2,0.6"/>
		<path class="st4" d="M126.2,81.6c-7.2,2.1-9.4,0.4-9.4,0.4"/>
		<ellipse transform="matrix(0.4143 -0.9101 0.9101 0.4143 21.2509 187.2343)" cx="156.1" cy="77.1" rx="2" ry="1.3"/>
		<ellipse transform="matrix(0.4143 -0.9101 0.9101 0.4143 22.552 191.5979)" cx="160.2" cy="78.3" rx="2" ry="1.3"/>
	</g>
</g>
</svg>
