<?xml version="1.0" encoding="utf-8"?>
<!-- Generator: Adobe Illustrator 22.1.0, SVG Export Plug-In . SVG Version: 6.00 Build 0)  -->
<svg version="1.1" xmlns="http://www.w3.org/2000/svg" xmlns:xlink="http://www.w3.org/1999/xlink" x="0px" y="0px"
	 viewBox="0 0 200 200" style="enable-background:new 0 0 200 200;" xml:space="preserve">
<style type="text/css">
	.st0{display:none;}
	.st1{display:inline;fill:#F39200;stroke:#FFFFFF;stroke-width:1.113;stroke-miterlimit:10;}
	.st2{fill:#E30613;}
	.st3{fill:none;stroke:#000000;stroke-width:0.6082;stroke-linecap:round;stroke-linejoin:round;stroke-miterlimit:10;}
	.st4{fill:none;stroke:#FFFFFF;stroke-width:1.2164;stroke-linecap:round;stroke-linejoin:round;stroke-miterlimit:10;}
	.st5{fill:#FFFFFF;}
	.st6{fill:none;stroke:#000000;stroke-width:1.2164;stroke-linecap:round;stroke-linejoin:round;stroke-miterlimit:10;}
	.st7{stroke:#FFFFFF;stroke-width:1.2164;stroke-linecap:round;stroke-linejoin:round;stroke-miterlimit:10;}
	.st8{fill:none;stroke:#FFFFFF;stroke-width:1.2482;stroke-linecap:round;stroke-linejoin:round;stroke-miterlimit:10;}
	.st9{fill:#FFED00;}
	.st10{fill:none;stroke:#009640;stroke-miterlimit:10;}
</style>
<g id="Calque_2" class="st0">
	<rect x="-11.4" y="-11.9" class="st1" width="223.7" height="223.7"/>
</g>
<g id="Calque_1">
	<path class="st2" d="M136.7,112.1c30-21.1,56.2,1,24.8,14.6c30.8-2.4,35.5,17.4,12.1,18.2c-23.4,0.8-35.4-10.2-35.4-10.2
		c-6.9,14-44.4,15.3-44.4,6.9c0-8.4,0.4-14.2,15.4-14.9C86.7,122.7,106.5,97.7,136.7,112.1z"/>
	<g>
		<path class="st3" d="M26.6,75c0,0,1.2,1.1,4.9,0.9"/>
		<path class="st3" d="M33.4,75.6C33.4,75.6,33.3,75.6,33.4,75.6"/>
		<path class="st4" d="M28.1,72.9c0.3,0.3,0.7,0.6,1,0.9c0.4,0.4,0.8,0.7,1.2,1"/>
		<path class="st4" d="M39.3,79.7C39.3,79.7,39.3,79.7,39.3,79.7c-5.4-9.2,0.8-15.8,3.1-18.8c0.3,0.1,0.6,0.2,0.8,0.3
			c1.4,0.6,2.5,1.4,3.4,2.5c0.4,0.5,0.7,0.9,1,1.5C50.9,71.4,47.8,81.2,39.3,79.7z"/>
		<path class="st4" d="M40.8,60.6c0,0,0.1,0,0.1,0c0.5,0.1,1.1,0.2,1.5,0.3"/>
		<path class="st4" d="M31.5,75.8c0.6,0.5,1.2,0.9,1.8,1.3c2.3,1.5,4.3,2.3,6.1,2.6"/>
		<path class="st5" d="M40.2,61.4C44.2,40.4,20.3,48.5,40.2,61.4"/>
		<path class="st5" d="M40.3,60.6c3.2-21.3,17.8-3.3,2.4,0.6L40.3,60.6z"/>
		<path class="st6" d="M45.2,65.1c5.7-5.6,8.6-4.8,8.6-4.8"/>
		<path class="st6" d="M47.1,65.3c7.6-1.8,9.9,0.3,9.9,0.3"/>
		<path class="st3" d="M27,69.4c-4.2,1-5.5-0.2-5.5-0.2"/>
		<path class="st3" d="M23,71.9c0,0,1.2,1.1,4.9,0.9c0,0,0.1,0,0.2,0"/>
		<path class="st3" d="M27.6,76.3c0,0,1.4,1.3,5.7,0.8c0,0,0,0,0.1,0c0.1,0,0.2,0,0.3,0c0,0,0.1,0,0.1,0"/>
		<path class="st4" d="M26.3,71c-0.9-3.4,0.6-5.4,4.1-7.8"/>
		<path class="st7" d="M28.1,72.9c-0.1-0.1-0.1-0.1-0.2-0.2c-0.6-0.5-1.1-1.1-1.7-1.7c-0.4-0.4-0.7-0.8-1.1-1.2
			c-0.5-0.6-1.1-1.2-1.6-1.9c3.8-3,7.2-5,10.1-6.1c-3.3,2.8-6.6,5.2-5.5,10.9C28.1,72.8,28.1,72.8,28.1,72.9z"/>
		<path class="st4" d="M28.1,72.9C28.1,72.9,28.1,72.9,28.1,72.9"/>
		<path class="st4" d="M33.6,61.7C33.5,61.7,33.5,61.8,33.6,61.7"/>
		<path class="st8" d="M30,72.4c-0.7,0.1-1.4,0.2-2,0.3c-1.2-5.7,2.1-8.1,5.5-10.9c1-0.4,1.9-0.7,2.8-0.9
			C33.8,63.2,30.2,67.4,30,72.4z"/>
		<path class="st8" d="M30.3,74.9C30.3,74.9,30.2,74.8,30.3,74.9"/>
		<path class="st7" d="M33.6,77.1c-1.4-6.5,4.2-14.2,6.7-16.5c-0.8,0-3.2,0.1-4.1,0.3c-2.5,2.3-6,6.5-6.2,11.5c0,0.4,0,0.8,0,1.2
			c0,0.3,0.1,0.8,0.2,1.2c0.4,0.4,2.9,2.2,3.6,2.6"/>
		<path class="st4" d="M33.9,77.4c-0.1-0.1-0.1-0.3-0.1-0.4c-0.2-0.5-0.3-1-0.4-1.4"/>
		<path class="st4" d="M39.4,79.8C39.4,79.7,39.3,79.7,39.4,79.8"/>
		<path class="st4" d="M42.5,60.9C42.5,60.9,42.5,60.9,42.5,60.9"/>
		<path class="st3" d="M30.8,73.5c-6.4,1.5-8.3-0.3-8.3-0.3"/>
		<path class="st3" d="M27.2,70.7c-4.2,1-5.5-0.2-5.5-0.2"/>
		<ellipse transform="matrix(0.3493 -0.937 0.937 0.3493 -35.7375 86.9904)" cx="44.8" cy="69.2" rx="1.2" ry="0.8"/>
		<ellipse transform="matrix(0.3493 -0.937 0.937 0.3493 -35.0725 89.7911)" cx="47.1" cy="70.1" rx="1.2" ry="0.8"/>
	</g>
	<g>
		<path class="st5" d="M100,5c52.4,0,95,41.9,95,93.5s-42.6,93.5-95,93.5S5,150,5,98.5S47.6,5,100,5 M100,0C44.8,0,0,44.1,0,98.5
			s44.8,98.5,100,98.5s100-44.1,100-98.5S155.2,0,100,0L100,0z"/>
	</g>
	<ellipse class="st9" cx="138" cy="122.8" rx="20.9" ry="7.9"/>
	<path class="st10" d="M138.2,134.6c5.5,19.2-4.1,43.4-8,48.1c-3.8,4.7,37.1-10.2,31.6-28.9c-15.7,5.3-23.5,14.5-31.6,28.9
		c-8.1,0.3-22.8-11.9-23.1-29.1c24.7-0.5,20.1,21.4,23.1,29.1"/>
</g>
</svg>
