<?xml version="1.0" encoding="utf-8"?>
<!-- Generator: Adobe Illustrator 22.1.0, SVG Export Plug-In . SVG Version: 6.00 Build 0)  -->
<svg version="1.1" xmlns="http://www.w3.org/2000/svg" xmlns:xlink="http://www.w3.org/1999/xlink" x="0px" y="0px"
	 viewBox="0 0 200 200" style="enable-background:new 0 0 200 200;" xml:space="preserve">
<style type="text/css">
	.st0{display:none;}
	.st1{display:inline;fill:#F39200;stroke:#FFFFFF;stroke-width:1.113;stroke-miterlimit:10;}
	.st2{fill:none;stroke:#000000;stroke-linecap:round;stroke-linejoin:round;stroke-miterlimit:10;}
	.st3{fill:none;stroke:#FFFFFF;stroke-width:2;stroke-linecap:round;stroke-linejoin:round;stroke-miterlimit:10;}
	.st4{fill:#FFFFFF;}
	.st5{fill:none;stroke:#000000;stroke-width:2;stroke-linecap:round;stroke-linejoin:round;stroke-miterlimit:10;}
	.st6{stroke:#FFFFFF;stroke-width:2;stroke-linecap:round;stroke-linejoin:round;stroke-miterlimit:10;}
	.st7{fill:none;stroke:#FFFFFF;stroke-width:2.0523;stroke-linecap:round;stroke-linejoin:round;stroke-miterlimit:10;}
	.st8{fill:#BE1622;}
	.st9{fill:none;stroke:#FFFFFF;stroke-width:2.0342;stroke-linecap:round;stroke-linejoin:round;stroke-miterlimit:10;}
	.st10{fill:#FFED00;}
</style>
<g id="Calque_2" class="st0">
	<rect x="-10.8" y="-11.9" class="st1" width="223.7" height="223.7"/>
</g>
<g id="Calque_1">
	<g>
		<path class="st2" d="M49,87.2c0,0,2.6,0.8,8.2-2.2"/>
		<path class="st2" d="M60,83.4c0,0-0.1,0.1-0.1,0.1"/>
		<path class="st3" d="M50.2,83.1c0.7,0.2,1.4,0.5,2.1,0.7c0.8,0.2,1.6,0.5,2.4,0.7"/>
		<path class="st3" d="M71.6,85.3C71.6,85.3,71.6,85.3,71.6,85.3c-13.7-9.7-7.8-23.9-5.8-29.9c0.5-0.1,1-0.1,1.5-0.1
			c2.5-0.1,4.7,0.4,6.7,1.4c0.8,0.4,1.6,0.9,2.3,1.5C85,65,85.8,81.7,71.6,85.3z"/>
		<path class="st3" d="M63.1,56.1c0.1,0,0.1,0,0.2,0c0.9-0.3,1.8-0.5,2.6-0.6"/>
		<path class="st3" d="M57.2,85.1c1.2,0.3,2.4,0.5,3.5,0.6c4.4,0.6,8,0.4,11-0.3"/>
		<path class="st4" d="M62.6,57.7C56.9,23.9,24.2,52.5,62.6,57.7"/>
		<path class="st4" d="M62.4,56.5c-7.1-33.7,26-17.3,4.1-0.7L62.4,56.5z"/>
		<path class="st5" d="M72.5,59.6c5.7-12.2,10.7-13.1,10.7-13.1"/>
		<path class="st5" d="M75.6,58.8c10.8-8,15.7-6.4,15.7-6.4"/>
		<path class="st2" d="M46.5,78.7c-6,4.4-8.7,3.6-8.7,3.6"/>
		<path class="st2" d="M41.6,85.1c0,0,2.6,0.8,8.1-2.1c0.1,0,0.2-0.1,0.2-0.1"/>
		<path class="st2" d="M51.3,88.5c0,0,2.9,1,9.3-2.8c0,0,0,0,0.1-0.1c0.1-0.1,0.3-0.2,0.4-0.3c0,0,0.1-0.1,0.2-0.1"/>
		<path class="st3" d="M46.3,81.6c-3.4-4.3-2.1-8.4,2-14.4"/>
		<path class="st6" d="M50.2,83.1c-0.1,0-0.3-0.1-0.4-0.2c-1.2-0.4-2.4-0.9-3.7-1.4c-0.8-0.3-1.6-0.7-2.4-1
			c-1.2-0.5-2.4-1.1-3.6-1.6c4.2-7.1,8.4-12.3,12.3-16C48.7,69.3,45,75.2,50,82.8C50.1,82.9,50.1,83,50.2,83.1z"/>
		<path class="st3" d="M50.2,83.1C50.2,83.1,50.2,83.1,50.2,83.1"/>
		<path class="st3" d="M52.4,62.8C52.4,62.9,52.4,62.9,52.4,62.8"/>
		<path class="st7" d="M53,81c-1.1,0.7-2,1.3-2.9,1.8c-5.1-7.6-1.3-13.5,2.3-19.9c1.3-1.2,2.6-2.3,3.8-3.2
			C53.6,64.9,50.4,73.5,53,81z"/>
		<path class="st7" d="M54.7,84.5C54.7,84.5,54.7,84.5,54.7,84.5"/>
		<path class="st6" d="M61.3,85.5c-5.9-8.7-1.5-23.9,1.1-29c-1.2,0.6-5,2.4-6.2,3.3C53.6,64.9,50.4,73.5,53,81
			c0.2,0.6,0.4,1.2,0.7,1.8c0.2,0.5,0.7,1.1,1,1.6c0.9,0.2,5.8,1.3,7.1,1.3"/>
		<path class="st3" d="M61.8,85.8c-0.2-0.2-0.3-0.3-0.5-0.5c-0.5-0.6-1-1.2-1.5-1.8"/>
		<path class="st3" d="M71.7,85.4c0,0-0.1,0-0.1-0.1"/>
		<path class="st3" d="M65.9,55.4C65.9,55.4,65.9,55.4,65.9,55.4"/>
		<path class="st2" d="M54.7,82.1c-9.1,6.7-13.1,5.4-13.1,5.4"/>
		<path class="st2" d="M47.6,80.5c-6,4.4-8.7,3.6-8.7,3.6"/>
		<ellipse transform="matrix(8.030327e-02 -0.9968 0.9968 8.030327e-02 2.3401 134.7455)" cx="74.2" cy="66.1" rx="2" ry="1.3"/>
		<ellipse transform="matrix(8.030327e-02 -0.9968 0.9968 8.030327e-02 6.4732 138.6797)" cx="78.4" cy="65.8" rx="2" ry="1.3"/>
	</g>
	<g>
		<path class="st4" d="M100,6c52.4,0,95,41.9,95,93.5s-42.6,93.5-95,93.5S5,151,5,99.5S47.6,6,100,6 M100,1C44.8,1,0,45.1,0,99.5
			s44.8,98.5,100,98.5s100-44.1,100-98.5S155.2,1,100,1L100,1z"/>
	</g>
	<path class="st8" d="M117.3,56.7L117.3,56.7c0.6-2.5-0.3-5-2.4-6.3c-1.7-1.1-3.9-1-5.7,0c0.1-2-0.8-4-2.6-5.1
		c-2.7-1.7-6.4-0.6-8.2,2.3C96.1,51.3,95.2,59,97,67.2C105,66.9,116.7,62.5,117.3,56.7z"/>
	<path class="st8" d="M139.8,58.1L139.8,58.1c-0.7-2-2.4-3.5-4.5-3.5c-1.7,0-3.2,1-4.1,2.4c-0.8-1.5-2.3-2.5-4-2.5
		c-2.6,0-4.8,2.3-4.8,5.2c-0.1,3.7,2.6,9.6,7.4,14.6C135.5,70.8,142,62.5,139.8,58.1z"/>
	<path class="st8" d="M139.8,42.6L139.8,42.6c0.2-1.5-0.4-2.9-1.7-3.5c-1.1-0.5-2.3-0.4-3.3,0.2c-0.1-1.2-0.7-2.3-1.7-2.8
		c-1.6-0.8-3.7-0.1-4.6,1.7c-1.2,2.3-1.4,6.7,0.1,11.4C133.2,49,139.7,45.9,139.8,42.6z"/>
	<path class="st9" d="M135,157c-11,27.8-29.2,37-29.2,37"/>
	<g>
		<path class="st8" d="M121.2,136.9l29.6-1.1C208.5,166.2,68.6,162,121.2,136.9z"/>
		<path class="st8" d="M121.6,118.5l-0.4,18.5C69.6,147.8,67.4,111.8,121.6,118.5z"/>
		<polygon class="st8" points="150.8,135.9 121.2,136.9 121.6,118.5 150.7,119.3 		"/>
		<path class="st8" d="M150.8,135.9l-0.1-16.5l-29.1-0.9c-52-20.6,84-24.3,31.6,0C203.8,108.9,192.9,146.6,150.8,135.9z"/>
	</g>
	<ellipse class="st10" cx="137.3" cy="126.5" rx="21.6" ry="7.7"/>
	<path class="st9" d="M114.7,186.7c-7.4-18.5-11.1-31.8-18.2-41.1C88.4,168.2,114.7,186.7,114.7,186.7"/>
	<path class="st9" d="M116.5,186.2c17.2-10,28.3-18.3,39.6-21.2C148.5,187.8,116.5,186.2,116.5,186.2"/>
</g>
</svg>
