<?xml version="1.0" encoding="utf-8"?>
<!-- Generator: Adobe Illustrator 22.1.0, SVG Export Plug-In . SVG Version: 6.00 Build 0)  -->
<svg version="1.1" xmlns="http://www.w3.org/2000/svg" xmlns:xlink="http://www.w3.org/1999/xlink" x="0px" y="0px"
	 viewBox="0 0 200 200" style="enable-background:new 0 0 200 200;" xml:space="preserve">
<style type="text/css">
	.st0{display:none;}
	.st1{display:inline;fill:#F39200;stroke:#FFFFFF;stroke-width:1.113;stroke-miterlimit:10;}
	.st2{fill:#E30613;}
	.st3{fill:none;stroke:#000000;stroke-width:0.8734;stroke-linecap:round;stroke-linejoin:round;stroke-miterlimit:10;}
	.st4{fill:none;stroke:#FFFFFF;stroke-width:1.7468;stroke-linecap:round;stroke-linejoin:round;stroke-miterlimit:10;}
	.st5{fill:#FFFFFF;}
	.st6{fill:none;stroke:#000000;stroke-width:1.7468;stroke-linecap:round;stroke-linejoin:round;stroke-miterlimit:10;}
	.st7{stroke:#FFFFFF;stroke-width:1.7468;stroke-linecap:round;stroke-linejoin:round;stroke-miterlimit:10;}
	.st8{fill:none;stroke:#FFFFFF;stroke-width:1.7925;stroke-linecap:round;stroke-linejoin:round;stroke-miterlimit:10;}
	.st9{fill:#FFED00;}
	.st10{fill:none;stroke:#009640;stroke-miterlimit:10;}
</style>
<g id="Calque_2" class="st0">
	<rect x="-11.4" y="-11.9" class="st1" width="223.7" height="223.7"/>
</g>
<g id="Calque_1">
	<path class="st2" d="M136.7,112.1c30-21.1,56.2,1,24.8,14.6c30.8-2.4,35.5,17.4,12.1,18.2c-23.4,0.8-35.4-10.2-35.4-10.2
		c-6.9,14-44.4,15.3-44.4,6.9c0-8.4,0.4-14.2,15.4-14.9C86.7,122.7,106.5,97.7,136.7,112.1z"/>
	<g>
		<path class="st3" d="M62.2,88.1c0,0,1.8,1.6,7.1,1.2"/>
		<path class="st3" d="M72,89c0,0-0.1,0-0.1,0"/>
		<path class="st4" d="M64.4,85.1c0.5,0.5,1,0.9,1.4,1.3c0.6,0.5,1.1,1,1.7,1.4"/>
		<path class="st4" d="M80.5,94.9C80.5,94.9,80.5,94.9,80.5,94.9c-7.8-13.1,1.1-22.7,4.5-27c0.4,0.1,0.8,0.3,1.2,0.4
			c2,0.8,3.6,2.1,4.8,3.6c0.5,0.7,1,1.4,1.4,2.1C97.2,82.9,92.7,97.1,80.5,94.9z"/>
		<path class="st4" d="M82.7,67.5c0,0,0.1,0,0.2,0c0.8,0.1,1.5,0.2,2.2,0.5"/>
		<path class="st4" d="M69.3,89.3c0.9,0.7,1.7,1.3,2.6,1.8c3.2,2.1,6.1,3.3,8.7,3.8"/>
		<path class="st5" d="M81.8,68.6C87.5,38.4,53.2,50.1,81.8,68.6"/>
		<path class="st5" d="M82,67.5c4.6-30.6,25.6-4.8,3.4,0.9L82,67.5z"/>
		<path class="st6" d="M89,73.9c8.1-8,12.4-6.9,12.4-6.9"/>
		<path class="st6" d="M91.6,74.3c10.9-2.6,14.2,0.5,14.2,0.5"/>
		<path class="st3" d="M62.8,80.1c-6.1,1.5-7.9-0.3-7.9-0.3"/>
		<path class="st3" d="M57.1,83.6c0,0,1.8,1.6,7,1.2c0.1,0,0.2,0,0.2,0"/>
		<path class="st3" d="M63.6,90c0,0,2,1.9,8.2,1.1c0,0,0,0,0.1,0c0.1,0,0.3,0,0.4-0.1c0,0,0.1,0,0.2,0"/>
		<path class="st4" d="M61.8,82.4c-1.3-4.8,0.9-7.8,5.9-11.2"/>
		<path class="st7" d="M64.4,85.1c-0.1-0.1-0.2-0.2-0.3-0.3c-0.8-0.8-1.6-1.6-2.5-2.5c-0.5-0.6-1.1-1.1-1.6-1.7
			c-0.8-0.9-1.6-1.8-2.3-2.7c5.5-4.3,10.3-7.1,14.5-8.8c-4.8,4-9.5,7.5-7.8,15.7C64.4,84.9,64.4,85,64.4,85.1z"/>
		<path class="st4" d="M64.4,85.2C64.4,85.2,64.4,85.2,64.4,85.2"/>
		<path class="st4" d="M72.2,69.1C72.2,69.1,72.2,69.1,72.2,69.1"/>
		<path class="st8" d="M67.2,84.4c-1,0.2-2,0.3-2.8,0.4c-1.7-8.2,3.1-11.7,7.8-15.7c1.4-0.5,2.7-0.9,4-1.2
			C72.6,71.2,67.5,77.2,67.2,84.4z"/>
		<path class="st8" d="M67.5,88C67.5,88,67.5,87.9,67.5,88"/>
		<path class="st7" d="M72.3,91.2c-2-9.4,6.1-20.4,9.6-23.7c-1.1,0.1-4.6,0.1-5.9,0.4c-3.5,3.3-8.6,9.3-8.9,16.5c0,0.6,0,1.2,0,1.8
			c0,0.5,0.2,1.2,0.3,1.7c0.6,0.5,4.1,3.2,5.2,3.7"/>
		<path class="st4" d="M72.7,91.7c-0.1-0.2-0.2-0.4-0.2-0.6c-0.2-0.7-0.4-1.4-0.6-2.1"/>
		<path class="st4" d="M80.6,95C80.6,95,80.5,94.9,80.6,95"/>
		<path class="st4" d="M85,67.9C85.1,67.9,85.1,67.9,85,67.9"/>
		<path class="st3" d="M68.2,86c-9.1,2.2-11.9-0.4-11.9-0.4"/>
		<path class="st3" d="M63.2,82c-6.1,1.5-7.9-0.3-7.9-0.3"/>
		<ellipse transform="matrix(0.3493 -0.937 0.937 0.3493 -17.3517 134.7442)" cx="88.3" cy="79.9" rx="1.8" ry="1.2"/>
		<ellipse transform="matrix(0.3493 -0.937 0.937 0.3493 -16.3967 138.7662)" cx="91.7" cy="81.2" rx="1.8" ry="1.2"/>
	</g>
	<g>
		<path class="st5" d="M100,5c52.4,0,95,41.9,95,93.5s-42.6,93.5-95,93.5S5,150,5,98.5S47.6,5,100,5 M100,0C44.8,0,0,44.1,0,98.5
			s44.8,98.5,100,98.5s100-44.1,100-98.5S155.2,0,100,0L100,0z"/>
	</g>
	<ellipse class="st9" cx="138" cy="122.8" rx="20.9" ry="7.9"/>
	<path class="st10" d="M138.2,134.6c5.5,19.2-4.1,43.4-8,48.1c-3.8,4.7,37.1-10.2,31.6-28.9c-15.7,5.3-23.5,14.5-31.6,28.9
		c-8.1,0.3-22.8-11.9-23.1-29.1c24.7-0.5,20.1,21.4,23.1,29.1"/>
	<ellipse class="st2" cx="117.6" cy="49.7" rx="6.4" ry="7.2"/>
	<ellipse class="st2" cx="128.9" cy="49.7" rx="6.2" ry="7.2"/>
	<path class="st2" d="M111.2,49.7c0.9,7.1,8.9,14.4,11.2,16.4c7.6-6.9,12.8-10.6,12.3-15.5C134.3,45.7,111.2,49.7,111.2,49.7z"/>
	<ellipse transform="matrix(0.2596 -0.9657 0.9657 0.2596 36.3542 184.8984)" class="st2" cx="138.8" cy="68.7" rx="4.4" ry="3.9"/>
	<ellipse transform="matrix(0.2596 -0.9657 0.9657 0.2596 39.5549 192.6538)" class="st2" cx="145.4" cy="70.5" rx="4.4" ry="3.8"/>
	<path class="st2" d="M135,67.7c-0.6,4.3,3,9.9,4,11.4c5.6-2.9,9.2-4.2,9.7-7.2C149.3,69,135,67.7,135,67.7z"/>
	<ellipse transform="matrix(0.9686 -0.2486 0.2486 0.9686 -8.1264 23.8769)" class="st2" cx="90.5" cy="44.1" rx="3.9" ry="4.4"/>
	<ellipse transform="matrix(0.9686 -0.2486 0.2486 0.9686 -7.4908 25.4831)" class="st2" cx="97.2" cy="42.4" rx="3.8" ry="4.4"/>
	<path class="st2" d="M86.7,45.1c1.6,4.1,7.5,7.2,9.1,8c3.5-5.3,5.9-8.2,5-11.1C99.7,39.2,86.7,45.1,86.7,45.1z"/>
	<ellipse transform="matrix(0.9686 -0.2486 0.2486 0.9686 -17.3228 32.3537)" class="st2" cx="119.5" cy="84.8" rx="3.9" ry="4.4"/>
	<ellipse transform="matrix(0.9686 -0.2486 0.2486 0.9686 -16.6872 33.96)" class="st2" cx="126.1" cy="83.1" rx="3.8" ry="4.4"/>
	<path class="st2" d="M115.7,85.7c1.6,4.1,7.5,7.2,9.1,8c3.5-5.3,5.9-8.2,5-11.1S115.7,85.7,115.7,85.7z"/>
</g>
</svg>
