<?xml version="1.0" encoding="utf-8"?>
<!-- Generator: Adobe Illustrator 22.1.0, SVG Export Plug-In . SVG Version: 6.00 Build 0)  -->
<svg version="1.1" xmlns="http://www.w3.org/2000/svg" xmlns:xlink="http://www.w3.org/1999/xlink" x="0px" y="0px"
	 viewBox="0 0 200 200" style="enable-background:new 0 0 200 200;" xml:space="preserve">
<style type="text/css">
	.st0{display:none;}
	.st1{display:inline;fill:#F1891D;stroke:#000000;stroke-miterlimit:10;}
	.st2{fill:none;stroke:#000000;stroke-width:0.334;stroke-linecap:round;stroke-linejoin:round;stroke-miterlimit:10;}
	.st3{fill:none;stroke:#FFFFFF;stroke-width:0.668;stroke-linecap:round;stroke-linejoin:round;stroke-miterlimit:10;}
	.st4{fill:#FFFFFF;}
	.st5{fill:none;stroke:#000000;stroke-width:0.668;stroke-linecap:round;stroke-linejoin:round;stroke-miterlimit:10;}
	.st6{stroke:#FFFFFF;stroke-width:0.668;stroke-linecap:round;stroke-linejoin:round;stroke-miterlimit:10;}
	.st7{fill:none;stroke:#FFFFFF;stroke-width:0.6855;stroke-linecap:round;stroke-linejoin:round;stroke-miterlimit:10;}
	.st8{fill:none;stroke:#000000;stroke-width:5;stroke-linecap:round;stroke-linejoin:round;stroke-miterlimit:10;}
	.st9{fill:#010202;}
	.st10{fill:none;stroke:#FFFFFF;stroke-linecap:round;stroke-linejoin:round;stroke-miterlimit:10;}
	.st11{fill:#F3E600;}
</style>
<g id="Calque_2" class="st0">
	<rect x="-15.3" y="-19.2" class="st1" width="232.2" height="248.3"/>
</g>
<g id="Calque_1">
	<g>
		<path class="st2" d="M54.4,94.4c0,0-0.9-0.1-2.2-1.8"/>
		<path class="st2" d="M51.6,91.7C51.6,91.7,51.6,91.7,51.6,91.7"/>
		<path class="st3" d="M54.6,93c-0.2,0-0.5-0.1-0.7-0.1c-0.3,0-0.6-0.1-0.8-0.1"/>
		<path class="st3" d="M47.8,90.7C47.8,90.7,47.8,90.7,47.8,90.7c5.5-1,5.7-6.1,6-8.2c-0.1-0.1-0.3-0.2-0.4-0.2
			c-0.7-0.4-1.5-0.6-2.2-0.5c-0.3,0-0.6,0-0.9,0.1C46.7,82.6,44.1,87.6,47.8,90.7z"/>
		<path class="st3" d="M54.6,83C54.5,83,54.5,83,54.6,83c-0.3-0.3-0.5-0.4-0.7-0.6"/>
		<path class="st3" d="M52.2,92.6c-0.4-0.1-0.8-0.2-1.1-0.3c-1.4-0.4-2.5-1-3.3-1.7"/>
		<path class="st4" d="M54.5,83.6C61,74.2,66.8,87.5,54.5,83.6"/>
		<path class="st4" d="M54.7,83.3c6.9-9.2-5.4-8.9-1.1-0.8L54.7,83.3z"/>
		<path class="st5" d="M51.2,82.8c0-4.5-1.4-5.5-1.4-5.5"/>
		<path class="st5" d="M50.4,82.1c-2.1-3.9-3.8-4.1-3.8-4.1"/>
		<path class="st2" d="M56.4,92.2c1.2,2.2,2.1,2.3,2.1,2.3"/>
		<path class="st2" d="M56.9,94.8c0,0-0.9-0.1-2.2-1.8c0,0,0-0.1-0.1-0.1"/>
		<path class="st2" d="M53.5,94.5c0,0-1-0.1-2.4-2.2c0,0,0,0,0,0c0,0-0.1-0.1-0.1-0.1c0,0,0,0,0-0.1"/>
		<path class="st3" d="M56,93.1c1.6-0.8,1.8-2.3,1.4-4.6"/>
		<path class="st6" d="M54.6,93c0.1,0,0.1,0,0.2,0c0.4,0,0.9,0.1,1.3,0.1c0.3,0,0.6,0,0.9,0c0.4,0,0.9,0,1.3,0
			c-0.3-2.8-0.8-4.9-1.5-6.6c0.2,2.4,0.5,4.8-2.1,6.3C54.7,93,54.7,93,54.6,93z"/>
		<line class="st3" x1="54.6" y1="93" x2="54.6" y2="93"/>
		<path class="st3" d="M56.8,86.6C56.8,86.6,56.8,86.6,56.8,86.6"/>
		<path class="st7" d="M54.1,92c0.2,0.4,0.4,0.7,0.6,1c2.6-1.6,2.3-3.9,2.1-6.3c-0.2-0.6-0.5-1.1-0.7-1.5C56.2,87,55.9,90.1,54.1,92
			z"/>
		<path class="st7" d="M53.1,92.8C53.1,92.8,53.1,92.8,53.1,92.8"/>
		<path class="st6" d="M50.9,92.2c3-1.8,3.8-7,3.8-8.9c0.3,0.4,1.2,1.4,1.4,1.9c0,1.9-0.2,5-2.1,6.9c-0.1,0.2-0.3,0.3-0.5,0.5
			c-0.1,0.1-0.4,0.2-0.5,0.3c-0.3-0.1-1.9-0.4-2.3-0.6"/>
		<path class="st3" d="M50.7,92.2c0.1,0,0.1-0.1,0.2-0.1c0.2-0.1,0.5-0.2,0.7-0.3"/>
		<path class="st3" d="M47.8,90.7C47.8,90.7,47.8,90.7,47.8,90.7"/>
		<path class="st3" d="M53.8,82.4C53.8,82.4,53.8,82.4,53.8,82.4"/>
		<path class="st2" d="M53.4,92.1c1.8,3.3,3.2,3.5,3.2,3.5"/>
		<path class="st2" d="M55.8,92.6c1.2,2.2,2.1,2.3,2.1,2.3"/>
		<ellipse transform="matrix(0.3506 -0.9365 0.9365 0.3506 -46.7887 101.4931)" cx="49.8" cy="84.5" rx="0.7" ry="0.4"/>
		<ellipse transform="matrix(0.3506 -0.9365 0.9365 0.3506 -46.9532 99.9)" cx="48.6" cy="83.8" rx="0.7" ry="0.4"/>
	</g>
	<g>
		<g>
			<path class="st4" d="M170.9,77.8c-8.4,8.1-17.9,17.6-29,21.7c-3.8,1.4-9.2,2.3-12-1.4c-1.9-2.5-1.9-6.1-0.8-9
				c0.3-0.7,0.8-1.3,1-2c0.8-1.8,0.5,0.5-0.5-0.1c0.6,0.3,3,0,4.1,0.5c4.6,2,8.9,7.8,9.9,12.7c1,5.3-1.9,10.2-5.7,13.6
				c-10.7,9.4-28.7,11.6-42.3,10.1c-19.6-2.2-34.4-14.6-37.1-34.6c0-0.3-5.8,1.7-5.6,3.5c2.9,21.3,19.5,33.7,40.3,35.1
				c17,1.1,36.6-3.8,49.3-15.7c4.4-4.1,7.9-9.7,6.5-16c-1.2-5.3-6.4-12.2-12.1-13.1c-8.2-1.3-17.6,9.6-13.3,17.4
				c3.1,5.6,10.7,3.8,15.5,2c13.9-5.3,25.7-16.3,36.3-26.4C177.5,74.3,171.7,77,170.9,77.8L170.9,77.8z"/>
		</g>
	</g>
	<g>
		<path class="st8" d="M40.5,28.2c6.6,3.4,16.2,13,15.6,15.5c-0.6,2.5,4,12.9,6.6,15c2.5,2.1,5.3,19.7,4.7,23.5
			c-0.6,3.8-12.9,14.6-12.9,22.6s5.5,12.1,7.4,14.8c1.9,2.7-2.7,15.9-4.2,17.3c-1.5,1.5-12.7,9.7-12.7,9.7l-14.2,8.5l-6.3,0.6"/>
		<g>
			<ellipse class="st9" cx="40.6" cy="80.8" rx="5.7" ry="9.3"/>
		</g>
		<line class="st10" x1="33" y1="37.3" x2="41.2" y2="37.3"/>
		<line class="st10" x1="33" y1="47.7" x2="41.2" y2="47.7"/>
		<line class="st10" x1="40.8" y1="55.3" x2="49" y2="55.3"/>
		<line class="st10" x1="33.2" y1="63.5" x2="41.4" y2="63.5"/>
		<line class="st10" x1="47.1" y1="67.4" x2="55.3" y2="67.4"/>
		<line class="st10" x1="29.8" y1="98.5" x2="38" y2="98.5"/>
		<line class="st10" x1="29.8" y1="109" x2="38" y2="109"/>
		<line class="st10" x1="37.6" y1="116.6" x2="45.8" y2="116.6"/>
		<line class="st10" x1="30" y1="124.7" x2="38.2" y2="124.7"/>
		<line class="st10" x1="43.9" y1="128.7" x2="52.1" y2="128.7"/>
	</g>
	<g>
		<path class="st4" d="M100,6c52.4,0,95,41.9,95,93.5s-42.6,93.5-95,93.5S5,151,5,99.5S47.6,6,100,6 M100,1C44.8,1,0,45.1,0,99.5
			s44.8,98.5,100,98.5s100-44.1,100-98.5S155.2,1,100,1L100,1z"/>
	</g>
	<ellipse class="st11" cx="58.4" cy="96.4" rx="0.6" ry="0.6"/>
	<ellipse class="st11" cx="60.5" cy="94.7" rx="0.7" ry="0.7"/>
	<ellipse class="st11" cx="56.7" cy="94" rx="0.2" ry="0.2"/>
	<ellipse class="st11" cx="55.9" cy="94.3" rx="0.2" ry="0.2"/>
	<ellipse class="st11" cx="55.2" cy="94.9" rx="0.2" ry="0.2"/>
	<ellipse class="st11" cx="67.3" cy="105.4" rx="0.8" ry="0.8"/>
	<ellipse class="st11" cx="64.5" cy="102.3" rx="0.5" ry="0.5"/>
	<ellipse class="st11" cx="64.5" cy="98.2" rx="0.5" ry="0.5"/>
	<ellipse class="st11" cx="63.8" cy="104.3" rx="0.6" ry="0.6"/>
	<ellipse class="st11" cx="53.5" cy="96.6" rx="0.5" ry="0.5"/>
	<ellipse class="st11" cx="60.8" cy="99" rx="0.5" ry="0.5"/>
	<ellipse class="st11" cx="69.8" cy="111.8" rx="0.6" ry="0.6"/>
</g>
</svg>
