<?xml version="1.0" encoding="utf-8"?>
<!-- Generator: Adobe Illustrator 22.1.0, SVG Export Plug-In . SVG Version: 6.00 Build 0)  -->
<svg version="1.1" id="Calque_1" xmlns="http://www.w3.org/2000/svg" xmlns:xlink="http://www.w3.org/1999/xlink" x="0px" y="0px"
	 viewBox="0 0 200 200" style="enable-background:new 0 0 200 200;" xml:space="preserve">
<style type="text/css">
	.st0{fill:#FFFFFF;}
	.st1{fill:none;stroke:#000000;stroke-width:5;stroke-linecap:round;stroke-linejoin:round;stroke-miterlimit:10;}
	.st2{fill:#010202;}
	.st3{fill:none;stroke:#FFFFFF;stroke-linecap:round;stroke-linejoin:round;stroke-miterlimit:10;}
	.st4{fill:none;stroke:#000000;stroke-width:1.0074;stroke-linecap:round;stroke-linejoin:round;stroke-miterlimit:10;}
	.st5{fill:none;stroke:#FFFFFF;stroke-width:2.0148;stroke-linecap:round;stroke-linejoin:round;stroke-miterlimit:10;}
	.st6{fill:none;stroke:#000000;stroke-width:2.0148;stroke-linecap:round;stroke-linejoin:round;stroke-miterlimit:10;}
	.st7{stroke:#FFFFFF;stroke-width:2.0148;stroke-linecap:round;stroke-linejoin:round;stroke-miterlimit:10;}
	.st8{fill:none;stroke:#FFFFFF;stroke-width:2.0675;stroke-linecap:round;stroke-linejoin:round;stroke-miterlimit:10;}
</style>
<g id="Calque_1_1_">
	<g>
		<g>
			<path class="st0" d="M48.9,92.1c6.9,6.7,14.5,13.8,23.3,17.8c3.9,1.8,7.9,2.6,11.8,0.5c5.5-2.9,7.5-10,3.9-15.4
				c-1.7-2.5-3.7-2.3-6.1-0.8c-3.7,2.3-4.9,6.2-5.8,10.3c-3.3,14.9,8.4,25.5,22.6,26.7c17.6,1.5,33.5-10.6,36.9-27.8
				c0.1-0.4-4,1-4.3,2.3c-2.8,14.4-13.4,23.8-28.4,22.7c-10.2-0.7-21.2-6.6-23.1-17.5c-0.8-4.5,0.1-10.1,2.1-14.2l1-1.7
				c-0.2-0.4-1.4,0.7-1.3,1c0,0.1,1.6,1.1,1.8,1.4c2.4,2.9,2.9,8.8,0.5,11.8c0.6-0.8,1-0.1-0.2-0.3c-0.8-0.1-1.7,0-2.5-0.1
				c-2.2-0.3-4.3-1.3-6.3-2.3c-8.2-4.2-15.2-10.7-21.7-17C52.3,88.6,48.5,91.7,48.9,92.1L48.9,92.1z"/>
		</g>
	</g>
	<g>
		<path class="st1" d="M40.5,27.2c6.6,3.4,16.2,13,15.6,15.5c-0.6,2.5,4,12.9,6.6,15c2.5,2.1,5.3,19.7,4.7,23.5
			c-0.6,3.8-12.9,14.6-12.9,22.6s5.5,12.1,7.4,14.8c1.9,2.7-2.7,15.9-4.2,17.3c-1.5,1.5-12.7,9.7-12.7,9.7l-14.2,8.5l-6.3,0.6"/>
		<g>
			<ellipse class="st2" cx="40.6" cy="79.8" rx="5.7" ry="9.3"/>
		</g>
		<line class="st3" x1="33" y1="36.3" x2="41.2" y2="36.3"/>
		<line class="st3" x1="33" y1="46.7" x2="41.2" y2="46.7"/>
		<line class="st3" x1="40.8" y1="54.3" x2="49" y2="54.3"/>
		<line class="st3" x1="33.2" y1="62.5" x2="41.4" y2="62.5"/>
		<line class="st3" x1="47.1" y1="66.4" x2="55.3" y2="66.4"/>
		<line class="st3" x1="29.8" y1="97.5" x2="38" y2="97.5"/>
		<line class="st3" x1="29.8" y1="108" x2="38" y2="108"/>
		<line class="st3" x1="37.6" y1="115.6" x2="45.8" y2="115.6"/>
		<line class="st3" x1="30" y1="123.7" x2="38.2" y2="123.7"/>
		<line class="st3" x1="43.9" y1="127.7" x2="52.1" y2="127.7"/>
	</g>
	<g>
		<path class="st0" d="M100,5c52.4,0,95,41.9,95,93.5S152.4,192,100,192S5,150,5,98.5S47.6,5,100,5 M100,0C44.8,0,0,44.1,0,98.5
			S44.8,197,100,197s100-44.1,100-98.5S155.2,0,100,0L100,0z"/>
	</g>
</g>
<g id="abeille">
	<g>
		<path class="st4" d="M136.4,88.4c0,0,2.7,0.6,7.9-3.2"/>
		<path class="st4" d="M147,83.2C146.9,83.2,146.9,83.2,147,83.2"/>
		<path class="st5" d="M137.2,84.2c0.8,0.2,1.5,0.3,2.1,0.4c0.9,0.1,1.6,0.3,2.4,0.4"/>
		<path class="st5" d="M158.9,83.7L158.9,83.7c-14.9-8-10.7-22.9-9.4-29.2c0.5-0.1,1-0.3,1.4-0.3c2.5-0.5,4.8-0.2,6.9,0.6
			c0.9,0.4,1.7,0.7,2.5,1.2C169.8,61.7,172.5,78.4,158.9,83.7z"/>
		<path class="st5" d="M146.8,55.5c0.1,0,0.1,0,0.2-0.1c0.8-0.4,1.7-0.7,2.5-0.9"/>
		<path class="st5" d="M144.3,85.2c1.2,0.2,2.5,0.2,3.6,0.2c4.5,0.1,8.1-0.6,10.9-1.7"/>
		<path class="st0" d="M146.4,57.3C136.7,24.2,107.4,56.7,146.4,57.3"/>
		<path class="st0" d="M146.1,56c-11.2-32.8,23.9-20.4,4-1.2L146.1,56z"/>
		<path class="st6" d="M156.7,57.9c4.2-12.9,9.1-14.3,9.1-14.3"/>
		<path class="st6" d="M159.6,56.7c9.9-9.3,14.9-8.3,14.9-8.3"/>
		<path class="st4" d="M133,80.2c-5.5,5.2-8.3,4.6-8.3,4.6"/>
		<path class="st4" d="M128.8,87.2c0,0,2.7,0.6,7.9-3.1c0.1,0,0.2-0.1,0.3-0.1"/>
		<path class="st4" d="M138.9,89.4c0,0,3,0.6,8.9-4l0.1,0c0.2-0.1,0.2-0.2,0.4-0.3c0.1,0,0.1,0,0.2-0.1"/>
		<path class="st5" d="M133.1,83.1c-3.9-3.9-3.1-8.1,0.3-14.6"/>
		<path class="st7" d="M137.2,84.2c-0.1,0-0.3-0.1-0.5-0.1c-1.3-0.3-2.5-0.5-3.8-0.9c-0.8-0.3-1.7-0.5-2.5-0.8
			c-1.2-0.4-2.5-0.8-3.9-1.2c3.4-7.6,6.9-13.3,10.3-17.5c-2.9,6.9-5.8,13.2,0,20.2C137,83.9,137,84,137.2,84.2z"/>
		<path class="st5" d="M137.2,84.2L137.2,84.2"/>
		<path class="st5" d="M136.9,63.6C136.9,63.6,136.9,63.7,136.9,63.6"/>
		<path class="st8" d="M139.7,81.7c-0.9,0.8-1.9,1.5-2.7,2.2c-6-7-2.9-13.3,0-20.2c1.1-1.4,2.3-2.6,3.5-3.7
			C138.4,65.5,136.3,74.5,139.7,81.7z"/>
		<path class="st8" d="M141.8,85L141.8,85"/>
		<path class="st7" d="M148.4,85.1c-7-8-4.4-23.6-2.4-29.1c-1.1,0.8-4.7,2.9-5.8,4.1c-1.9,5.5-4,14.4-0.6,21.6
			c0.3,0.5,0.6,1.2,1,1.8c0.2,0.4,0.9,1,1.2,1.4c0.9,0.1,5.9,0.6,7.3,0.4"/>
		<path class="st5" d="M149.1,85.4c-0.2-0.1-0.4-0.3-0.6-0.5c-0.6-0.5-1.2-1.1-1.6-1.7"/>
		<path class="st5" d="M158.9,83.8L158.9,83.8"/>
		<path class="st5" d="M149.4,54.5L149.4,54.5"/>
		<path class="st4" d="M141.6,82.5c-8.3,7.8-12.5,7-12.5,7"/>
		<path class="st4" d="M134.2,81.8c-5.5,5.2-8.3,4.6-8.3,4.6"/>
		<ellipse transform="matrix(0.9992 -4.047302e-02 4.047302e-02 0.9992 -2.4686 6.4903)" cx="159.1" cy="64.2" rx="1.3" ry="2"/>
		<ellipse transform="matrix(0.9992 -4.047302e-02 4.047302e-02 0.9992 -2.4311 6.6593)" cx="163.3" cy="63.4" rx="1.3" ry="2"/>
	</g>
</g>
</svg>
